<mxfile host="app.diagrams.net" agent="Mozilla/5.0 (X11; Linux x86_64) AppleWebKit/537.36 (KHTML, like Gecko) Chrome/129.0.0.0 Safari/537.36" version="24.7.17">
  <diagram name="Страница — 1" id="jByGepC68z2pDkWntIZt">
    <mxGraphModel dx="1247" dy="630" grid="1" gridSize="10" guides="1" tooltips="1" connect="1" arrows="1" fold="1" page="1" pageScale="1" pageWidth="827" pageHeight="1169" math="0" shadow="0">
      <root>
        <mxCell id="0" />
        <mxCell id="1" parent="0" />
        <mxCell id="TwySmjNxWrajXWgp9aNd-3" value="&lt;font style=&quot;font-size: 16px;&quot;&gt;&lt;b&gt;OLOO -&amp;nbsp;objects-linked-to-other-objects&lt;/b&gt;&lt;/font&gt;&lt;div style=&quot;font-size: 16px;&quot;&gt;&lt;font style=&quot;font-size: 16px;&quot;&gt;&lt;b&gt;Парадигма связанных объектов друг с другом&lt;/b&gt;&lt;/font&gt;&lt;/div&gt;" style="text;html=1;align=center;verticalAlign=middle;resizable=0;points=[];autosize=1;strokeColor=none;fillColor=none;" vertex="1" parent="1">
          <mxGeometry x="415" y="105" width="390" height="50" as="geometry" />
        </mxCell>
        <mxCell id="TwySmjNxWrajXWgp9aNd-6" value="" style="group" vertex="1" connectable="0" parent="1">
          <mxGeometry x="230" y="350" width="110" height="140" as="geometry" />
        </mxCell>
        <mxCell id="TwySmjNxWrajXWgp9aNd-2" value="addToCart()&lt;div&gt;increase()&lt;/div&gt;&lt;div&gt;decrease()&lt;/div&gt;" style="html=1;whiteSpace=wrap;align=center;" vertex="1" parent="TwySmjNxWrajXWgp9aNd-6">
          <mxGeometry y="30" width="110" height="110" as="geometry" />
        </mxCell>
        <mxCell id="TwySmjNxWrajXWgp9aNd-5" value="&lt;b&gt;&lt;font style=&quot;font-size: 14px;&quot;&gt;Product&lt;/font&gt;&lt;/b&gt;" style="text;html=1;align=center;verticalAlign=middle;resizable=0;points=[];autosize=1;strokeColor=none;fillColor=none;" vertex="1" parent="TwySmjNxWrajXWgp9aNd-6">
          <mxGeometry x="-5" width="80" height="30" as="geometry" />
        </mxCell>
        <mxCell id="TwySmjNxWrajXWgp9aNd-31" value="" style="group" vertex="1" connectable="0" parent="1">
          <mxGeometry x="560" y="350" width="150" height="140" as="geometry" />
        </mxCell>
        <mxCell id="TwySmjNxWrajXWgp9aNd-32" value="pushProduct()&lt;div&gt;popProduct()&lt;/div&gt;&lt;div&gt;increaseCartCount()&lt;/div&gt;&lt;div&gt;decreaseCartCount()&lt;/div&gt;&lt;div&gt;orderTolal()&lt;/div&gt;&lt;div&gt;getCartInformation()&lt;/div&gt;&lt;div&gt;clearCart()&lt;/div&gt;" style="html=1;whiteSpace=wrap;align=center;" vertex="1" parent="TwySmjNxWrajXWgp9aNd-31">
          <mxGeometry y="30" width="150" height="110" as="geometry" />
        </mxCell>
        <mxCell id="TwySmjNxWrajXWgp9aNd-33" value="&lt;span style=&quot;font-size: 14px;&quot;&gt;&lt;b&gt;Cart&lt;/b&gt;&lt;/span&gt;" style="text;html=1;align=center;verticalAlign=middle;resizable=0;points=[];autosize=1;strokeColor=none;fillColor=none;" vertex="1" parent="TwySmjNxWrajXWgp9aNd-31">
          <mxGeometry x="13.636363636363635" width="50" height="30" as="geometry" />
        </mxCell>
        <mxCell id="TwySmjNxWrajXWgp9aNd-34" value="" style="group" vertex="1" connectable="0" parent="1">
          <mxGeometry x="90" y="180" width="110" height="140" as="geometry" />
        </mxCell>
        <mxCell id="TwySmjNxWrajXWgp9aNd-35" value="toString()&lt;div&gt;valueOf()&lt;/div&gt;&lt;div&gt;hasOwnProperty()&lt;/div&gt;&lt;div&gt;...&lt;/div&gt;" style="html=1;whiteSpace=wrap;align=center;" vertex="1" parent="TwySmjNxWrajXWgp9aNd-34">
          <mxGeometry y="30" width="110" height="110" as="geometry" />
        </mxCell>
        <mxCell id="TwySmjNxWrajXWgp9aNd-36" value="&lt;b&gt;&lt;font style=&quot;font-size: 14px;&quot;&gt;Object.prototype&lt;/font&gt;&lt;/b&gt;" style="text;html=1;align=center;verticalAlign=middle;resizable=0;points=[];autosize=1;strokeColor=none;fillColor=none;" vertex="1" parent="TwySmjNxWrajXWgp9aNd-34">
          <mxGeometry x="-35" width="140" height="30" as="geometry" />
        </mxCell>
        <mxCell id="TwySmjNxWrajXWgp9aNd-37" style="edgeStyle=orthogonalEdgeStyle;rounded=0;orthogonalLoop=1;jettySize=auto;html=1;exitX=0;exitY=0.5;exitDx=0;exitDy=0;entryX=0.5;entryY=1;entryDx=0;entryDy=0;" edge="1" parent="1" target="TwySmjNxWrajXWgp9aNd-35">
          <mxGeometry relative="1" as="geometry">
            <mxPoint x="230" y="456.54" as="sourcePoint" />
            <mxPoint x="140.04999999999995" y="340.00000000000006" as="targetPoint" />
          </mxGeometry>
        </mxCell>
        <mxCell id="TwySmjNxWrajXWgp9aNd-38" value=".__proto__&lt;div&gt;[[Prototype]]&lt;/div&gt;" style="edgeLabel;html=1;align=center;verticalAlign=middle;resizable=0;points=[];" vertex="1" connectable="0" parent="TwySmjNxWrajXWgp9aNd-37">
          <mxGeometry x="0.2853" relative="1" as="geometry">
            <mxPoint as="offset" />
          </mxGeometry>
        </mxCell>
        <mxCell id="TwySmjNxWrajXWgp9aNd-39" style="edgeStyle=orthogonalEdgeStyle;rounded=0;orthogonalLoop=1;jettySize=auto;html=1;exitX=0.5;exitY=0;exitDx=0;exitDy=0;entryX=1.008;entryY=0.456;entryDx=0;entryDy=0;entryPerimeter=0;" edge="1" parent="1" source="TwySmjNxWrajXWgp9aNd-32" target="TwySmjNxWrajXWgp9aNd-35">
          <mxGeometry relative="1" as="geometry" />
        </mxCell>
        <mxCell id="TwySmjNxWrajXWgp9aNd-42" value=".__proto__&lt;div&gt;[[Prototype]]&lt;/div&gt;" style="edgeLabel;html=1;align=center;verticalAlign=middle;resizable=0;points=[];" vertex="1" connectable="0" parent="TwySmjNxWrajXWgp9aNd-39">
          <mxGeometry x="-0.6979" y="1" relative="1" as="geometry">
            <mxPoint as="offset" />
          </mxGeometry>
        </mxCell>
        <mxCell id="TwySmjNxWrajXWgp9aNd-40" style="edgeStyle=orthogonalEdgeStyle;rounded=0;orthogonalLoop=1;jettySize=auto;html=1;exitX=1.008;exitY=0.1;exitDx=0;exitDy=0;entryX=-0.008;entryY=0.092;entryDx=0;entryDy=0;exitPerimeter=0;entryPerimeter=0;" edge="1" parent="1">
          <mxGeometry relative="1" as="geometry">
            <mxPoint x="340.8799999999999" y="396" as="sourcePoint" />
            <mxPoint x="559.1200000000001" y="395.12" as="targetPoint" />
          </mxGeometry>
        </mxCell>
        <mxCell id="TwySmjNxWrajXWgp9aNd-41" value="&lt;font style=&quot;font-size: 12px;&quot;&gt;&lt;b&gt;Cart.pushProduct(this)&lt;/b&gt;&lt;/font&gt;" style="edgeLabel;html=1;align=center;verticalAlign=middle;resizable=0;points=[];" vertex="1" connectable="0" parent="TwySmjNxWrajXWgp9aNd-40">
          <mxGeometry x="-0.0758" y="1" relative="1" as="geometry">
            <mxPoint x="5" as="offset" />
          </mxGeometry>
        </mxCell>
        <mxCell id="TwySmjNxWrajXWgp9aNd-43" value="" style="group" vertex="1" connectable="0" parent="1">
          <mxGeometry x="155" y="540" width="110" height="140" as="geometry" />
        </mxCell>
        <mxCell id="TwySmjNxWrajXWgp9aNd-44" value="category&lt;div&gt;name&lt;/div&gt;&lt;div&gt;price&lt;/div&gt;" style="html=1;whiteSpace=wrap;align=center;" vertex="1" parent="TwySmjNxWrajXWgp9aNd-43">
          <mxGeometry y="30" width="110" height="110" as="geometry" />
        </mxCell>
        <mxCell id="TwySmjNxWrajXWgp9aNd-45" value="&lt;b&gt;&lt;font style=&quot;font-size: 14px;&quot;&gt;[...ProductObject]&lt;/font&gt;&lt;/b&gt;" style="text;html=1;align=center;verticalAlign=middle;resizable=0;points=[];autosize=1;strokeColor=none;fillColor=none;" vertex="1" parent="TwySmjNxWrajXWgp9aNd-43">
          <mxGeometry x="-35" width="140" height="30" as="geometry" />
        </mxCell>
        <mxCell id="TwySmjNxWrajXWgp9aNd-46" style="edgeStyle=orthogonalEdgeStyle;rounded=0;orthogonalLoop=1;jettySize=auto;html=1;exitX=1;exitY=0.5;exitDx=0;exitDy=0;entryX=0.5;entryY=1;entryDx=0;entryDy=0;" edge="1" parent="1" source="TwySmjNxWrajXWgp9aNd-44" target="TwySmjNxWrajXWgp9aNd-2">
          <mxGeometry relative="1" as="geometry" />
        </mxCell>
        <mxCell id="TwySmjNxWrajXWgp9aNd-54" value=".prototype" style="edgeLabel;html=1;align=center;verticalAlign=middle;resizable=0;points=[];" vertex="1" connectable="0" parent="TwySmjNxWrajXWgp9aNd-46">
          <mxGeometry x="0.471" relative="1" as="geometry">
            <mxPoint as="offset" />
          </mxGeometry>
        </mxCell>
        <mxCell id="TwySmjNxWrajXWgp9aNd-48" style="edgeStyle=orthogonalEdgeStyle;rounded=0;orthogonalLoop=1;jettySize=auto;html=1;exitX=1;exitY=0.25;exitDx=0;exitDy=0;entryX=0;entryY=0.25;entryDx=0;entryDy=0;" edge="1" parent="1">
          <mxGeometry relative="1" as="geometry">
            <mxPoint x="340" y="416.5" as="sourcePoint" />
            <mxPoint x="560" y="416.5" as="targetPoint" />
          </mxGeometry>
        </mxCell>
        <mxCell id="TwySmjNxWrajXWgp9aNd-50" value="&lt;b style=&quot;font-size: 12px;&quot;&gt;Cart.popProduct(this)&lt;/b&gt;" style="edgeLabel;html=1;align=center;verticalAlign=middle;resizable=0;points=[];" vertex="1" connectable="0" parent="TwySmjNxWrajXWgp9aNd-48">
          <mxGeometry x="-0.1136" y="-3" relative="1" as="geometry">
            <mxPoint x="5" as="offset" />
          </mxGeometry>
        </mxCell>
        <mxCell id="TwySmjNxWrajXWgp9aNd-51" value="" style="group" vertex="1" connectable="0" parent="1">
          <mxGeometry x="480" y="540" width="110" height="140" as="geometry" />
        </mxCell>
        <mxCell id="TwySmjNxWrajXWgp9aNd-52" value="products - count&lt;div&gt;totalPrice&lt;/div&gt;" style="html=1;whiteSpace=wrap;align=center;" vertex="1" parent="TwySmjNxWrajXWgp9aNd-51">
          <mxGeometry y="30" width="110" height="110" as="geometry" />
        </mxCell>
        <mxCell id="TwySmjNxWrajXWgp9aNd-53" value="&lt;span style=&quot;font-size: 14px;&quot;&gt;&lt;b&gt;CartObject&lt;/b&gt;&lt;/span&gt;" style="text;html=1;align=center;verticalAlign=middle;resizable=0;points=[];autosize=1;strokeColor=none;fillColor=none;" vertex="1" parent="TwySmjNxWrajXWgp9aNd-51">
          <mxGeometry x="-15" width="100" height="30" as="geometry" />
        </mxCell>
        <mxCell id="TwySmjNxWrajXWgp9aNd-55" style="edgeStyle=orthogonalEdgeStyle;rounded=0;orthogonalLoop=1;jettySize=auto;html=1;exitX=1;exitY=0.5;exitDx=0;exitDy=0;entryX=0.5;entryY=1;entryDx=0;entryDy=0;" edge="1" parent="1" source="TwySmjNxWrajXWgp9aNd-52" target="TwySmjNxWrajXWgp9aNd-32">
          <mxGeometry relative="1" as="geometry" />
        </mxCell>
        <mxCell id="TwySmjNxWrajXWgp9aNd-56" value=".prototype" style="edgeLabel;html=1;align=center;verticalAlign=middle;resizable=0;points=[];" vertex="1" connectable="0" parent="TwySmjNxWrajXWgp9aNd-55">
          <mxGeometry x="0.3312" relative="1" as="geometry">
            <mxPoint as="offset" />
          </mxGeometry>
        </mxCell>
        <mxCell id="TwySmjNxWrajXWgp9aNd-64" value="&lt;i&gt;addToCart()&lt;/i&gt;" style="text;html=1;align=center;verticalAlign=middle;resizable=0;points=[];autosize=1;strokeColor=none;fillColor=none;" vertex="1" parent="1">
          <mxGeometry x="400" y="368" width="90" height="30" as="geometry" />
        </mxCell>
        <mxCell id="TwySmjNxWrajXWgp9aNd-65" value="&lt;i&gt;increase() product &amp;lt; 1&lt;/i&gt;" style="text;html=1;align=center;verticalAlign=middle;resizable=0;points=[];autosize=1;strokeColor=none;fillColor=none;" vertex="1" parent="1">
          <mxGeometry x="375" y="394" width="140" height="30" as="geometry" />
        </mxCell>
        <mxCell id="TwySmjNxWrajXWgp9aNd-66" style="edgeStyle=orthogonalEdgeStyle;rounded=0;orthogonalLoop=1;jettySize=auto;html=1;entryX=-0.007;entryY=0.658;entryDx=0;entryDy=0;entryPerimeter=0;exitX=0.999;exitY=0.605;exitDx=0;exitDy=0;exitPerimeter=0;" edge="1" parent="1" source="TwySmjNxWrajXWgp9aNd-2">
          <mxGeometry relative="1" as="geometry">
            <mxPoint x="360" y="447" as="sourcePoint" />
            <mxPoint x="558.95" y="446.38" as="targetPoint" />
          </mxGeometry>
        </mxCell>
        <mxCell id="TwySmjNxWrajXWgp9aNd-67" value="&lt;b style=&quot;font-size: 12px;&quot;&gt;Cart.increaseCartCount(this)&lt;/b&gt;" style="edgeLabel;html=1;align=center;verticalAlign=middle;resizable=0;points=[];" vertex="1" connectable="0" parent="TwySmjNxWrajXWgp9aNd-66">
          <mxGeometry x="-0.1136" y="-3" relative="1" as="geometry">
            <mxPoint x="7" as="offset" />
          </mxGeometry>
        </mxCell>
        <mxCell id="TwySmjNxWrajXWgp9aNd-68" style="edgeStyle=orthogonalEdgeStyle;rounded=0;orthogonalLoop=1;jettySize=auto;html=1;exitX=0.999;exitY=0.816;exitDx=0;exitDy=0;exitPerimeter=0;" edge="1" parent="1" source="TwySmjNxWrajXWgp9aNd-2">
          <mxGeometry relative="1" as="geometry">
            <mxPoint x="351" y="470" as="sourcePoint" />
            <mxPoint x="560" y="470" as="targetPoint" />
          </mxGeometry>
        </mxCell>
        <mxCell id="TwySmjNxWrajXWgp9aNd-69" value="&lt;b style=&quot;font-size: 12px;&quot;&gt;Cart.decreaseCartCount(this)&lt;/b&gt;" style="edgeLabel;html=1;align=center;verticalAlign=middle;resizable=0;points=[];" vertex="1" connectable="0" parent="TwySmjNxWrajXWgp9aNd-68">
          <mxGeometry x="-0.1136" y="-3" relative="1" as="geometry">
            <mxPoint x="7" as="offset" />
          </mxGeometry>
        </mxCell>
        <mxCell id="TwySmjNxWrajXWgp9aNd-70" value="1...*" style="text;html=1;align=center;verticalAlign=middle;resizable=0;points=[];autosize=1;strokeColor=none;fillColor=none;" vertex="1" parent="1">
          <mxGeometry x="350" y="630" width="40" height="30" as="geometry" />
        </mxCell>
        <mxCell id="TwySmjNxWrajXWgp9aNd-75" value="1" style="endArrow=open;html=1;endSize=12;startArrow=diamondThin;startSize=14;startFill=0;edgeStyle=orthogonalEdgeStyle;align=left;verticalAlign=bottom;rounded=0;entryX=1;entryY=0.75;entryDx=0;entryDy=0;exitX=0;exitY=0.75;exitDx=0;exitDy=0;" edge="1" parent="1">
          <mxGeometry x="-1" y="3" relative="1" as="geometry">
            <mxPoint x="480" y="654" as="sourcePoint" />
            <mxPoint x="265" y="654" as="targetPoint" />
          </mxGeometry>
        </mxCell>
        <mxCell id="TwySmjNxWrajXWgp9aNd-80" value="" style="group" vertex="1" connectable="0" parent="1">
          <mxGeometry x="930" y="350" width="110" height="140" as="geometry" />
        </mxCell>
        <mxCell id="TwySmjNxWrajXWgp9aNd-81" value="confirmOrder()&lt;div&gt;startNewOrder()&lt;/div&gt;" style="html=1;whiteSpace=wrap;align=center;" vertex="1" parent="TwySmjNxWrajXWgp9aNd-80">
          <mxGeometry y="30" width="110" height="110" as="geometry" />
        </mxCell>
        <mxCell id="TwySmjNxWrajXWgp9aNd-82" value="&lt;b&gt;&lt;font style=&quot;font-size: 14px;&quot;&gt;Order&lt;/font&gt;&lt;/b&gt;" style="text;html=1;align=center;verticalAlign=middle;resizable=0;points=[];autosize=1;strokeColor=none;fillColor=none;" vertex="1" parent="TwySmjNxWrajXWgp9aNd-80">
          <mxGeometry x="5" width="60" height="30" as="geometry" />
        </mxCell>
        <mxCell id="TwySmjNxWrajXWgp9aNd-87" style="edgeStyle=orthogonalEdgeStyle;rounded=0;orthogonalLoop=1;jettySize=auto;html=1;exitX=0;exitY=0.25;exitDx=0;exitDy=0;entryX=1;entryY=0.25;entryDx=0;entryDy=0;" edge="1" parent="1" source="TwySmjNxWrajXWgp9aNd-81" target="TwySmjNxWrajXWgp9aNd-32">
          <mxGeometry relative="1" as="geometry" />
        </mxCell>
        <mxCell id="TwySmjNxWrajXWgp9aNd-88" value="&lt;font style=&quot;font-size: 12px;&quot;&gt;&lt;b&gt;Cart.getCartInformation()&lt;/b&gt;&lt;/font&gt;" style="edgeLabel;html=1;align=center;verticalAlign=middle;resizable=0;points=[];" vertex="1" connectable="0" parent="TwySmjNxWrajXWgp9aNd-87">
          <mxGeometry x="-0.2846" relative="1" as="geometry">
            <mxPoint x="-24" y="2" as="offset" />
          </mxGeometry>
        </mxCell>
        <mxCell id="TwySmjNxWrajXWgp9aNd-89" value="&lt;i&gt;confirmOrder()&lt;/i&gt;" style="text;html=1;align=center;verticalAlign=middle;resizable=0;points=[];autosize=1;strokeColor=none;fillColor=none;" vertex="1" parent="1">
          <mxGeometry x="770" y="378" width="100" height="30" as="geometry" />
        </mxCell>
        <mxCell id="TwySmjNxWrajXWgp9aNd-91" style="edgeStyle=orthogonalEdgeStyle;rounded=0;orthogonalLoop=1;jettySize=auto;html=1;exitX=0.75;exitY=0;exitDx=0;exitDy=0;entryX=1;entryY=0.091;entryDx=0;entryDy=0;entryPerimeter=0;" edge="1" parent="1" source="TwySmjNxWrajXWgp9aNd-81" target="TwySmjNxWrajXWgp9aNd-35">
          <mxGeometry relative="1" as="geometry" />
        </mxCell>
        <mxCell id="TwySmjNxWrajXWgp9aNd-92" value=".__proto__&lt;div&gt;[[Prototype]]&lt;/div&gt;" style="edgeLabel;html=1;align=center;verticalAlign=middle;resizable=0;points=[];" vertex="1" connectable="0" parent="1">
          <mxGeometry x="1010" y="270.00047619047615" as="geometry" />
        </mxCell>
        <mxCell id="TwySmjNxWrajXWgp9aNd-93" style="edgeStyle=orthogonalEdgeStyle;rounded=0;orthogonalLoop=1;jettySize=auto;html=1;exitX=0;exitY=0.75;exitDx=0;exitDy=0;entryX=1;entryY=0.75;entryDx=0;entryDy=0;" edge="1" parent="1" source="TwySmjNxWrajXWgp9aNd-81" target="TwySmjNxWrajXWgp9aNd-32">
          <mxGeometry relative="1" as="geometry" />
        </mxCell>
        <mxCell id="TwySmjNxWrajXWgp9aNd-94" value="&lt;font style=&quot;font-size: 12px;&quot;&gt;&lt;b&gt;Cart.clearCart()&lt;/b&gt;&lt;/font&gt;" style="edgeLabel;html=1;align=center;verticalAlign=middle;resizable=0;points=[];" vertex="1" connectable="0" parent="TwySmjNxWrajXWgp9aNd-93">
          <mxGeometry x="0.0003" relative="1" as="geometry">
            <mxPoint as="offset" />
          </mxGeometry>
        </mxCell>
        <mxCell id="TwySmjNxWrajXWgp9aNd-95" value="&lt;i&gt;startNewOrder()&lt;/i&gt;" style="text;html=1;align=center;verticalAlign=middle;resizable=0;points=[];autosize=1;strokeColor=none;fillColor=none;" vertex="1" parent="1">
          <mxGeometry x="765" y="430" width="110" height="30" as="geometry" />
        </mxCell>
        <mxCell id="TwySmjNxWrajXWgp9aNd-96" value="" style="group" vertex="1" connectable="0" parent="1">
          <mxGeometry x="850" y="540" width="110" height="140" as="geometry" />
        </mxCell>
        <mxCell id="TwySmjNxWrajXWgp9aNd-97" value="Cart" style="html=1;whiteSpace=wrap;align=center;" vertex="1" parent="TwySmjNxWrajXWgp9aNd-96">
          <mxGeometry y="30" width="110" height="110" as="geometry" />
        </mxCell>
        <mxCell id="TwySmjNxWrajXWgp9aNd-98" value="&lt;span style=&quot;font-size: 14px;&quot;&gt;&lt;b&gt;OrderObject&lt;/b&gt;&lt;/span&gt;" style="text;html=1;align=center;verticalAlign=middle;resizable=0;points=[];autosize=1;strokeColor=none;fillColor=none;" vertex="1" parent="TwySmjNxWrajXWgp9aNd-96">
          <mxGeometry x="-20" width="110" height="30" as="geometry" />
        </mxCell>
        <mxCell id="TwySmjNxWrajXWgp9aNd-106" value="" style="endArrow=diamondThin;endFill=0;endSize=24;html=1;rounded=0;entryX=0;entryY=0.75;entryDx=0;entryDy=0;exitX=1;exitY=0.75;exitDx=0;exitDy=0;" edge="1" parent="1" source="TwySmjNxWrajXWgp9aNd-52" target="TwySmjNxWrajXWgp9aNd-97">
          <mxGeometry width="160" relative="1" as="geometry">
            <mxPoint x="605" y="700" as="sourcePoint" />
            <mxPoint x="765" y="700" as="targetPoint" />
          </mxGeometry>
        </mxCell>
        <mxCell id="TwySmjNxWrajXWgp9aNd-107" style="edgeStyle=orthogonalEdgeStyle;rounded=0;orthogonalLoop=1;jettySize=auto;html=1;exitX=1;exitY=0.5;exitDx=0;exitDy=0;entryX=0.5;entryY=1;entryDx=0;entryDy=0;" edge="1" parent="1" source="TwySmjNxWrajXWgp9aNd-97" target="TwySmjNxWrajXWgp9aNd-81">
          <mxGeometry relative="1" as="geometry" />
        </mxCell>
        <mxCell id="TwySmjNxWrajXWgp9aNd-108" value="&lt;span style=&quot;color: rgb(0, 0, 0); font-family: Helvetica; font-size: 11px; font-style: normal; font-variant-ligatures: normal; font-variant-caps: normal; font-weight: 400; letter-spacing: normal; orphans: 2; text-align: center; text-indent: 0px; text-transform: none; widows: 2; word-spacing: 0px; -webkit-text-stroke-width: 0px; white-space: nowrap; background-color: rgb(255, 255, 255); text-decoration-thickness: initial; text-decoration-style: initial; text-decoration-color: initial; display: inline !important; float: none;&quot;&gt;.prototype&lt;/span&gt;" style="text;whiteSpace=wrap;html=1;" vertex="1" parent="1">
          <mxGeometry x="970" y="540" width="60" height="30" as="geometry" />
        </mxCell>
      </root>
    </mxGraphModel>
  </diagram>
</mxfile>
